
<svg width="1200" height="700" xmlns="http://www.w3.org/2000/svg">
  <style>
    .box { fill:#f9fafb; stroke:#111827; stroke-width:1.5; rx:8; ry:8; }
    .title { font-size:16px; font-weight:bold; fill:#111827; }
    .text { font-size:13px; fill:#111827; }
    .arrow { stroke:#111827; stroke-width:1.5; marker-end:url(#arrowhead); }
  </style>

  <defs>
    <marker id="arrowhead" markerWidth="10" markerHeight="7" refX="10" refY="3.5" orient="auto">
      <polygon points="0 0, 10 3.5, 0 7" fill="#111827"/>
    </marker>
  </defs>

  <!-- Boxes -->
  <rect x="450" y="40" width="300" height="70" class="box"/>
  <text x="600" y="70" text-anchor="middle" class="title">Static Earth Imagery</text>
  <text x="600" y="92" text-anchor="middle" class="text">Satellite / Aerial Maps</text>

  <rect x="450" y="150" width="300" height="90" class="box"/>
  <text x="600" y="185" text-anchor="middle" class="title">AI Segmentation Layer</text>
  <text x="600" y="207" text-anchor="middle" class="text">SAM Inference</text>
  <text x="600" y="227" text-anchor="middle" class="text">Feature Masks</text>

  <rect x="450" y="280" width="300" height="100" class="box"/>
  <text x="600" y="315" text-anchor="middle" class="title">Geometry Processing</text>
  <text x="600" y="337" text-anchor="middle" class="text">Mask → Polygons</text>
  <text x="600" y="357" text-anchor="middle" class="text">CRS Normalization</text>

  <rect x="100" y="430" width="320" height="100" class="box"/>
  <text x="260" y="465" text-anchor="middle" class="title">PostGIS</text>
  <text x="260" y="487" text-anchor="middle" class="text">Spatial Storage</text>
  <text x="260" y="507" text-anchor="middle" class="text">GiST Indexes</text>

  <rect x="450" y="430" width="300" height="100" class="box"/>
  <text x="600" y="465" text-anchor="middle" class="title">Measurement Engine</text>
  <text x="600" y="487" text-anchor="middle" class="text">Area / Distance</text>
  <text x="600" y="507" text-anchor="middle" class="text">Material Estimates</text>

  <rect x="800" y="430" width="320" height="100" class="box"/>
  <text x="960" y="465" text-anchor="middle" class="title">Outputs</text>
  <text x="960" y="487" text-anchor="middle" class="text">GeoJSON / API</text>
  <text x="960" y="507" text-anchor="middle" class="text">PDF-Ready Data</text>

  <!-- Arrows -->
  <line x1="600" y1="110" x2="600" y2="150" class="arrow"/>
  <line x1="600" y1="240" x2="600" y2="280" class="arrow"/>
  <line x1="600" y1="380" x2="260" y2="430" class="arrow"/>
  <line x1="600" y1="380" x2="600" y2="430" class="arrow"/>
  <line x1="600" y1="380" x2="960" y2="430" class="arrow"/>
</svg>
